<svg width="18" height="18" viewBox="0 0 18 18" fill="none" xmlns="http://www.w3.org/2000/svg">
<path fill-rule="evenodd" clip-rule="evenodd" d="M18 9C18 9.41421 17.6642 9.75 17.25 9.75H9C8.58579 9.75 8.25 9.41421 8.25 9C8.25 8.58579 8.58579 8.25 9 8.25H17.25C17.6642 8.25 18 8.58579 18 9ZM9 3.75H17.25C17.6642 3.75 18 3.41421 18 3C18 2.58579 17.6642 2.25 17.25 2.25H9C8.58579 2.25 8.25 2.58579 8.25 3C8.25 3.41421 8.58579 3.75 9 3.75ZM17.25 14.25H9C8.58579 14.25 8.25 14.5858 8.25 15C8.25 15.4142 8.58579 15.75 9 15.75H17.25C17.6642 15.75 18 15.4142 18 15C18 14.5858 17.6642 14.25 17.25 14.25ZM4.71938 0.969375L2.25 3.43969L1.28062 2.46938C0.987569 2.17632 0.512431 2.17632 0.219375 2.46938C-0.0736811 2.76243 -0.0736811 3.23757 0.219375 3.53062L1.71938 5.03063C1.86005 5.17146 2.05094 5.25059 2.25 5.25059C2.44906 5.25059 2.63995 5.17146 2.78062 5.03063L5.78063 2.03062C6.07368 1.73757 6.07368 1.26243 5.78063 0.969375C5.48757 0.676319 5.01243 0.676319 4.71938 0.969375ZM4.71938 6.96937L2.25 9.43969L1.28062 8.46937C1.09105 8.2798 0.814741 8.20576 0.555778 8.27515C0.296815 8.34454 0.0945415 8.54681 0.0251527 8.80578C-0.0442362 9.06474 0.0298009 9.34105 0.219375 9.53063L1.71938 11.0306C1.86005 11.1715 2.05094 11.2506 2.25 11.2506C2.44906 11.2506 2.63995 11.1715 2.78062 11.0306L5.78063 8.03063C6.07368 7.73757 6.07368 7.26243 5.78063 6.96937C5.48757 6.67632 5.01243 6.67632 4.71938 6.96937ZM4.71938 12.9694L2.25 15.4397L1.28062 14.4694C1.09105 14.2798 0.814741 14.2058 0.555778 14.2752C0.296815 14.3445 0.0945415 14.5468 0.0251527 14.8058C-0.0442362 15.0647 0.0298009 15.3411 0.219375 15.5306L1.71938 17.0306C1.86005 17.1715 2.05094 17.2506 2.25 17.2506C2.44906 17.2506 2.63995 17.1715 2.78062 17.0306L5.78063 14.0306C6.07368 13.7376 6.07368 13.2624 5.78063 12.9694C5.48757 12.6763 5.01243 12.6763 4.71938 12.9694Z" fill="#121417"/>
</svg>
